<svg xmlns="http://www.w3.org/2000/svg" viewBox="0 0 215.59 157.08"><defs><style>.cls-1{fill:#fff;}</style></defs><title>logo-dark</title><g id="Layer_2"><g id="Layer_1-2"><path d="M81.9 123c-8.74-11.52-27.33-12-49.47-10.42-7.85.55-14.32-1.63-15.88-4-2-3-4.7-2.07-8.1-.75s-4.72-3.52-4.72-3.52a3.46 3.46 0 0 0 5.1-1c2.28-3.06.65-7.15-3.9-6.4-4.75.7-5.93 6.5-4.14 10.76 2.3 5.53 7.2 8.44 25.23 7 24.5-2 45.5-2.7 54.6 9.3a.8.8 0 0 0 1.26-1zM8.08 102.4a1.4 1.4 0 0 1-1.9-.7c2.4-1.6-.15-4-.15-4 3.3.08 3.54 4.22 2.05 4.7zm4.3 5.8s1.26-1.14 2.68.7a19 19 0 0 0 3.33 3.22c-5.8-.97-6-3.9-6-3.9zM133.84 124.08a.8.8 0 0 0 1.1-.15c9.1-12 30.12-11.3 54.6-9.3 18 1.48 22.93-1.43 25.25-7 1.78-4.26.6-10.05-4.14-10.82-4.57-.73-6.2 3.36-3.9 6.43a3.46 3.46 0 0 0 5.1 1s-1.34 4.84-4.73 3.52-6.14-2.3-8.1.75c-1.55 2.4-8 4.6-15.87 4-22.16-1.5-40.73-1.05-49.47 10.5a.8.8 0 0 0 .14 1.08zm75.72-26.33s-2.56 2.34-.15 4a1.4 1.4 0 0 1-1.9.7c-1.5-.53-1.26-4.67 2.06-4.7zm-12.36 14.37a19 19 0 0 0 3.33-3.23c1.42-1.84 2.67-.7 2.67-.7s-.2 2.95-6 3.92zM29.86 59.85a2.13 2.13 0 0 1 0 1.77 4.17 4.17 0 0 1-1.22 1.55 8.58 8.58 0 0 1-1.93 1.16 8.46 8.46 0 0 1-2.18.64 5.6 5.6 0 0 1-2 0 1.87 1.87 0 0 1-1.3-.84A4.74 4.74 0 0 1 21 61a15.68 15.68 0 0 1 1.64-4.67 29.2 29.2 0 0 1 3.6-5.33A27 27 0 0 1 32 46a31.24 31.24 0 0 1 8-3.74 34.3 34.3 0 0 1 10.38-1.45 22.65 22.65 0 0 1 9.28 1.62 12 12 0 0 1 5.22 4.16 10.2 10.2 0 0 1 1.68 5.74 16 16 0 0 1-1.35 6.35 20.64 20.64 0 0 1-3.92 5.93 21.36 21.36 0 0 1-6 4.5 7.86 7.86 0 0 1 4.22 4.14 9.76 9.76 0 0 1 .4 5.8 18 18 0 0 1-3 6.45 26.38 26.38 0 0 1-5.84 6 31.5 31.5 0 0 1-8.22 4.37 29.17 29.17 0 0 1-10.1 1.7 3.64 3.64 0 0 1-2.4-.6 1.48 1.48 0 0 1-.6-1.32 2.15 2.15 0 0 1 .82-1.32 2.66 2.66 0 0 1 1.8-.6 15.38 15.38 0 0 0 7.1-1.73 20.84 20.84 0 0 0 5.6-4.12 20.55 20.55 0 0 0 3.78-5.38 16 16 0 0 0 1.6-5.38 6.5 6.5 0 0 0-.8-4.12A3.92 3.92 0 0 0 46 71.32a2.46 2.46 0 0 1-1.8-.58 1.44 1.44 0 0 1-.48-1.26 2 2 0 0 1 .9-1.26 3.87 3.87 0 0 1 2.3-.58 5.5 5.5 0 0 0 3.76-1.74 16 16 0 0 0 3.2-4.38 22.77 22.77 0 0 0 2-5.67 15 15 0 0 0 .12-5.67 7.9 7.9 0 0 0-2.2-4.38 7.1 7.1 0 0 0-5.2-1.74 21.8 21.8 0 0 0-9.16 1.77 20.27 20.27 0 0 0-6.25 4.25 13.5 13.5 0 0 0-3.2 5.2 6.6 6.6 0 0 0-.14 4.57zm6.57-9.1a1.88 1.88 0 0 1 1.5-1.25 4.55 4.55 0 0 1 2.33.32 10.16 10.16 0 0 1 2.55 1.48 14.12 14.12 0 0 1 2.3 2.22 9.53 9.53 0 0 1 1.5 2.55 3.86 3.86 0 0 1 .2 2.48 16.08 16.08 0 0 1-1.74 3.38q-1.48 2.42-3.54 5.58t-4.45 6.78q-2.4 3.6-4.48 7T29 87.46a18.27 18.27 0 0 0-1.8 4.35 2.3 2.3 0 0 1-1.1 1.7 2.18 2.18 0 0 1-1.7.18 2.6 2.6 0 0 1-1.4-1.16 3.5 3.5 0 0 1-.4-2.4 62.5 62.5 0 0 1 1.65-8Q25.35 78 26.77 74t2.93-7.9q1.5-3.8 2.9-6.93t2.4-5.32q1-2.2 1.44-3.1zM85.35 70.87a2.47 2.47 0 0 1 2.06-1.42 6.08 6.08 0 0 1 3 .4 5.7 5.7 0 0 1 2.5 1.8 3.23 3.23 0 0 1 .5 3 14.18 14.18 0 0 1-1.15 2.73q-.84 1.58-1.84 3.22l-2 3.25a30.74 30.74 0 0 0-1.54 2.87 4.62 4.62 0 0 0-.55 2q0 .7 1 .64A5.25 5.25 0 0 0 90.23 88a15.94 15.94 0 0 0 2.6-2.74A25.66 25.66 0 0 0 95 81.9a34.92 34.92 0 0 0 1.55-3.23 4.15 4.15 0 0 1 1.5-1.93 1.82 1.82 0 0 1 1.6-.26 1.63 1.63 0 0 1 1 1.22 4.3 4.3 0 0 1-.4 2.58 29.8 29.8 0 0 1-1.84 3.93 27.15 27.15 0 0 1-3 4.46 18.72 18.72 0 0 1-4.05 3.64 8.87 8.87 0 0 1-5 1.5 4 4 0 0 1-3.84-2 10.12 10.12 0 0 1-1.08-4.8 19.32 19.32 0 0 1-4.22 4.77 7.42 7.42 0 0 1-5.45 1.68 8.06 8.06 0 0 1-5.16-2.06 8.8 8.8 0 0 1-2.5-4.52 14.8 14.8 0 0 1 0-6 22.77 22.77 0 0 1 2.33-6.5 26.75 26.75 0 0 1 4.45-6.07 21.8 21.8 0 0 1 6.4-4.57 23.74 23.74 0 0 1 8.23-2.13 25.4 25.4 0 0 1 9.84 1.3 3.4 3.4 0 0 1 1.84 1.25 2.36 2.36 0 0 1 .52 1.64 1.6 1.6 0 0 1-1 1.2 4 4 0 0 1-2.6.07 13.4 13.4 0 0 0-5.68-.2 16.13 16.13 0 0 0-5.06 1.88 19.43 19.43 0 0 0-4.3 3.35 31.08 31.08 0 0 0-3.4 4.2 24.43 24.43 0 0 0-2.4 4.37 18.1 18.1 0 0 0-1.18 4 7.14 7.14 0 0 0 .06 3.06 1.8 1.8 0 0 0 1.5 1.42 3.17 3.17 0 0 0 2.65-.77 13.38 13.38 0 0 0 2.5-2.77 27.53 27.53 0 0 0 2.3-4q1.05-2.2 1.9-4.28.57-2.06 1.18-3.8a20.2 20.2 0 0 1 1.17-2.65zM117.13 73.77a14.7 14.7 0 0 1-1.2 2.8q-.86 1.64-1.9 3.38l-2 3.45a33.32 33.32 0 0 0-1.6 3.06 5.63 5.63 0 0 0-.6 2.16q0 .8 1 .68a5.25 5.25 0 0 0 2.8-1.3 16 16 0 0 0 2.6-2.74 25.64 25.64 0 0 0 2.2-3.42 34.87 34.87 0 0 0 1.57-3.17 4.15 4.15 0 0 1 1.5-1.93 1.82 1.82 0 0 1 1.6-.26 1.62 1.62 0 0 1 1 1.22 4.3 4.3 0 0 1-.4 2.58 29.77 29.77 0 0 1-1.84 3.93 27.17 27.17 0 0 1-3 4.46 18.7 18.7 0 0 1-4.06 3.64 8.87 8.87 0 0 1-5 1.5 5 5 0 0 1-3.6-1.18 6.2 6.2 0 0 1-1.7-3.1 13.33 13.33 0 0 1-.22-4.3 36.3 36.3 0 0 1 .8-4.9 47.68 47.68 0 0 1 1.4-4.8q.8-2.33 1.45-4v-.07a2.74 2.74 0 0 0-.3-2.55 17 17 0 0 0-1.7-1.84q-.52 1.3-1.3 3.13T103 73.92q-.77 1.9-1.5 3.6l-1.2 2.75a3.32 3.32 0 0 1-1.55 1.8 1.7 1.7 0 0 1-1.58 0 2.06 2.06 0 0 1-.93-1.32 2.77 2.77 0 0 1 .4-2.1q.44-.76 1.1-2.18l1.38-3.06q.74-1.64 1.5-3.42l1.38-3.26q.64-1.48 1.06-2.55t.48-1.27a8.3 8.3 0 0 1 .64-3.54 3.4 3.4 0 0 1 1.48-2 2.25 2.25 0 0 1 1.77-.27 1.83 1.83 0 0 1 1.16 1.13 2.74 2.74 0 0 1-.24 2.16 4.38 4.38 0 0 0-.64 2.22 2.57 2.57 0 0 0 .77 1.6 11.24 11.24 0 0 0 2 1.6q1.28.83 3.15 2.18a8 8 0 0 1 1.58 1 5.25 5.25 0 0 1 1.9 3 3.56 3.56 0 0 1 0 1.75zM152.58 78.86a3.47 3.47 0 0 1 1.77-1.48 2.65 2.65 0 0 1 1.77 0 1.74 1.74 0 0 1 1.06 1.13 2.53 2.53 0 0 1-.42 2.07 14.3 14.3 0 0 1-2.13 2.55 14 14 0 0 1-3.22 2.32 14.84 14.84 0 0 1-4.15 1.45 13.56 13.56 0 0 1-4.93 0 30.4 30.4 0 0 1-6.28 5 13.16 13.16 0 0 1-6.74 2 10 10 0 0 1-5.83-1.52 8.5 8.5 0 0 1-3.13-4.13 16.3 16.3 0 0 1-.87-6.12 42.34 42.34 0 0 1 .93-7.5 80.73 80.73 0 0 1 2.22-8.3c2.92-9 3.7-12 8-20.67q1-2.06 1.35-2.77a1.88 1.88 0 0 1 1.5-1.27 4.55 4.55 0 0 1 2.33.32 11.25 11.25 0 0 1 2.58 1.45 12 12 0 0 1 2.32 2.22 10 10 0 0 1 1.5 2.58 3.87 3.87 0 0 1 .2 2.48 18.42 18.42 0 0 1-1.63 3.32c-4.42 7.47-4.9 6.57-8.95 13.95q-2.26 4.13-4 8a40.06 40.06 0 0 0-2.5 6.83 8.9 8.9 0 0 0-.17 4.77q.58 1.8 3.1 1.8a5.24 5.24 0 0 0 3.5-1.64 23.2 23.2 0 0 0 3.45-4.15 8.36 8.36 0 0 1-2.35-3.7 12.5 12.5 0 0 1-.55-4.5 16.75 16.75 0 0 1 3.22-8.85 13.5 13.5 0 0 1 3.35-3.2 9.38 9.38 0 0 1 4.13-1.58l.48-.1a4 4 0 0 1 .55 0 12.6 12.6 0 0 1 1.84.16 8.88 8.88 0 0 1 2.13.6 6.9 6.9 0 0 1 2 1.33 5.22 5.22 0 0 1 1.42 2.3 9.92 9.92 0 0 1 .35 3.45 17.08 17.08 0 0 1-1.13 4.87 29.3 29.3 0 0 1-2 4.22 38 38 0 0 1-3 4.54 9.05 9.05 0 0 0 7-4.2zM140.9 66.6h-.05q-.77 0-1.74 1.36a12.94 12.94 0 0 0-1.63 3.32 15.66 15.66 0 0 0-.8 4.22 7.2 7.2 0 0 0 .83 4q1.16-2.32 2.06-4.6a37.3 37.3 0 0 0 1.4-4.13 13.9 13.9 0 0 0 .5-3q.03-1.16-.55-1.16zM170.5 80.2a18.64 18.64 0 0 1-5.5 1.17 18.44 18.44 0 0 1-4-.26 21.37 21.37 0 0 0-.84 3.33 7 7 0 0 0 0 2.77 3.32 3.32 0 0 0 1.13 1.87 3.7 3.7 0 0 0 2.37.68 15 15 0 0 0 6.12-1.2 18.38 18.38 0 0 0 4.7-2.92 19.7 19.7 0 0 0 5.15-7 4.15 4.15 0 0 1 1.5-1.93 1.82 1.82 0 0 1 1.6-.26 1.62 1.62 0 0 1 1 1.22 4.28 4.28 0 0 1-.4 2.58 18.62 18.62 0 0 1-2.16 3.93 23.33 23.33 0 0 1-4 4.45 23.08 23.08 0 0 1-5.78 3.6 18.05 18.05 0 0 1-7.44 1.5 10.58 10.58 0 0 1-11.2-8.52 17.57 17.57 0 0 1 .12-7.9 22.3 22.3 0 0 1 3.54-7.9 21.15 21.15 0 0 1 6.67-6.1 18.34 18.34 0 0 1 9.52-2.4 10.12 10.12 0 0 1 5.4 1.18 5.4 5.4 0 0 1 2.43 3.06 7.8 7.8 0 0 1 0 4.16 13.86 13.86 0 0 1-2 4.42 19.23 19.23 0 0 1-3.5 3.87 14.14 14.14 0 0 1-4.45 2.6zm-1.42-3.4a11.15 11.15 0 0 0 4.2-2.88 12.26 12.26 0 0 0 2.47-3.83 5.92 5.92 0 0 0 .42-3.4 1.75 1.75 0 0 0-1.93-1.44 5.13 5.13 0 0 0-2.84 1.06 18.28 18.28 0 0 0-3.13 2.8 32.62 32.62 0 0 0-3 3.93 43.14 43.14 0 0 0-2.6 4.5 13 13 0 0 0 2.92.07 12.73 12.73 0 0 0 3.48-.82zM200.34 73.77a14.7 14.7 0 0 1-1.2 2.8q-.86 1.64-1.9 3.38l-2 3.45a33.32 33.32 0 0 0-1.6 3.06 5.63 5.63 0 0 0-.6 2.16q0 .8 1 .68a5.25 5.25 0 0 0 2.78-1.3 16 16 0 0 0 2.6-2.74 25.64 25.64 0 0 0 2.2-3.42 34.85 34.85 0 0 0 1.55-3.22 4.15 4.15 0 0 1 1.5-1.93 1.82 1.82 0 0 1 1.6-.27 1.62 1.62 0 0 1 1 1.22 4.3 4.3 0 0 1-.4 2.58A29.78 29.78 0 0 1 205 84.2a27.16 27.16 0 0 1-3 4.46 18.7 18.7 0 0 1-4.06 3.64 8.87 8.87 0 0 1-5 1.5 5 5 0 0 1-3.6-1.18 6.2 6.2 0 0 1-1.7-3.1 13.33 13.33 0 0 1-.22-4.3 36.3 36.3 0 0 1 .8-4.9 47.73 47.73 0 0 1 1.4-4.8q.8-2.33 1.45-4v-.07a2.74 2.74 0 0 0-.3-2.55 17 17 0 0 0-1.7-1.84q-.52 1.3-1.3 3.13t-1.54 3.73q-.77 1.9-1.5 3.6l-1.2 2.75a3.32 3.32 0 0 1-1.55 1.8 1.7 1.7 0 0 1-1.58 0 2.06 2.06 0 0 1-.93-1.32 2.78 2.78 0 0 1 .4-2.1q.44-.76 1.1-2.18l1.38-3.06q.74-1.64 1.5-3.42l1.43-3.26q.64-1.48 1.06-2.55t.48-1.27a8.3 8.3 0 0 1 .64-3.54 3.4 3.4 0 0 1 1.48-2 2.25 2.25 0 0 1 1.77-.27 1.83 1.83 0 0 1 1.17 1.13 2.74 2.74 0 0 1-.23 2.16 4.38 4.38 0 0 0-.64 2.22 2.57 2.57 0 0 0 .77 1.6 11.24 11.24 0 0 0 2 1.6q1.3.83 3.16 2.18a8 8 0 0 1 1.58 1 5.25 5.25 0 0 1 1.9 3 3.56 3.56 0 0 1-.06 1.75zM74.05 10.53c.8-.35 1.2-.52 2-.85L77 12c.48 1.2.05 2.14-1.28 2.72s-2.33.25-2.87-.9l-1.75-3.74c-.55-1.16-.1-2.2 1.37-2.83s2.52-.27 3 .92l.3.72-1.4.56-.37-.78a.7.7 0 0 0-1-.4.7.7 0 0 0-.44 1.06l1.77 3.94a.8.8 0 0 0 1.44-.63l-.58-1.36-.66.27zM80 8c.8-.28 1.22-.42 2-.68l.35 1.1c-.8.25-1.2.38-2 .66l.77 2.2c1-.33 1.47-.5 2.45-.8l.34 1.1c-1.52.47-2.28.73-3.8 1.28L77.35 5.4c1.66-.62 2.5-.9 4.2-1.43l.33 1.1c-1.05.32-1.58.5-2.62.85zM86.08 5l1.46 5.6-1.27.35-2.15-7.75 2-.52c1.1 1.7 1.65 2.55 2.7 4.27L87.7 2.3l1.4-.3 1.68 7.8-1.47.33C88.08 8 87.43 7 86.1 5zM91.44 1.5c2-.36 2.93-.5 4.9-.77l.15 1.13-1.65.23 1 6.77-1.44.23-1.12-6.76-1.63.3zM98.73.45l1.6-.15.56 6.83c1-.08 1.44-.1 2.4-.16l.07 1.14c-1.54.1-2.3.15-3.84.3zM107 3.38c.85 0 1.27 0 2.1 0v1.14c-.82 0-1.24 0-2.07 0v2.34c1 0 1.53 0 2.55 0V8c-1.6 0-2.38 0-4 0l-.2-8c1.75 0 2.62 0 4.36 0v1.14c-1.1 0-1.64 0-2.73 0zM115.26 6c.62-2.22.94-3.33 1.62-5.55.9.1 1.33.15 2.2.26l-1.08 8-1.37-.18.66-5.7c-.7 2.23-1 3.35-1.67 5.6l-1.37-.14c-.24-2.3-.38-3.44-.68-5.73l-.4 5.64-1.18-.07.44-8c.9 0 1.33.08 2.22.15.25 2.3.34 3.46.6 5.72zM122.9 4.78c.84.15 1.26.24 2.1.4l-.25 1.13c-.82-.16-1.23-.24-2.05-.4l-.43 2.3c1 .2 1.5.3 2.5.5l-.23 1.13c-1.56-.34-2.34-.5-3.9-.75l1.3-7.9c1.73.3 2.6.46 4.3.84l-.24 1.1c-1.07-.22-1.6-.33-2.7-.53zM129.7 5.12l-1.5 5.6-1.28-.33 1.94-7.77 2 .5c.13 2 .18 3 .24 5l1.36-4.58 1.34.45-2.4 7.63-1.4-.42c-.1-2.42-.14-3.64-.3-6.08zM136.14 6.07l.4-1.14 1.47.53-.37 1-1.1 1-.6-.22.78-.94zM142.72 7.26c1.46.64 1.9 1.66 1.34 2.82l-.1.23-1.38-.62.14-.3a.7.7 0 0 0-.42-1 .7.7 0 0 0-1.05.4c-.65 1.52 2 3 1.05 5.13-.54 1.17-1.54 1.5-2.87.9s-1.76-1.52-1.28-2.7l.18-.47 1.33.55-.22.53a.8.8 0 0 0 1.44.64c.67-1.5-2-3-1.14-5.1.5-1.24 1.52-1.62 2.98-.98zM127.85 36.1a12.6 12.6 0 0 1-3.23-1.26l-1.33.36a16.43 16.43 0 0 0 3.6 1.7c1.3.33 2.1.2 2.13-.2s-.1-.5-1.18-.6zM125.4 33a1.15 1.15 0 0 0-1.4-1s-9.64.84-16 1.25-18.66-1.37-18.66-1.37c-2.68-.48-3.13.88-3.13.88a1.8 1.8 0 0 0 1.1 2.6c4.5 1.36 10.1 1.75 18.84 1.7a79.8 79.8 0 0 0 18.06-2.65s1.33-.26 1.2-1.4zm-36.77 1.46a.78.78 0 1 1 .78-.78.78.78 0 0 1-.77.78zm33.75-.54a.55.55 0 1 1 .55-.55.55.55 0 0 1-.55.55zM94.06 21.44l14.7 7.95a2.74 2.74 0 0 0 2.2.16l1.24-.44a1.1 1.1 0 0 1 .92.08l5.22 3 3.47-.3-25.68-14.34a.46.46 0 0 0-.6.14l-1.75 2.6a.8.8 0 0 0 .28 1.14zm1.74-3.2a.27.27 0 0 1 .36-.1l15.64 8.6-1.53 2.26.94-2-15.13-8.4-1.23 1.14zM89.5 107.83c2.46 0 3.72 1.3 3.72 3.58v.46h-2.4v-.6c0-1-.45-1.4-1.25-1.4s-1.26.4-1.26 1.4c0 2.94 4.94 3.5 4.94 7.56 0 2.28-1.3 3.58-3.76 3.58s-3.76-1.3-3.76-3.58v-.88h2.38v1c0 1 .5 1.38 1.3 1.38s1.32-.37 1.32-1.38c0-2.93-4.93-3.48-4.93-7.55-.02-2.27 1.2-3.57 3.7-3.57zM99.9 122.24h-2.53V108h2.52v6.1h2.86V108h2.57v14.25h-2.57v-6.1H99.9zM109.64 111.4c0-2.27 1.35-3.57 3.83-3.57s3.83 1.3 3.83 3.58v7.42c0 2.28-1.35 3.58-3.83 3.58s-3.83-1.3-3.83-3.58zm2.52 7.56c0 1 .5 1.4 1.3 1.4s1.32-.4 1.32-1.4v-7.7c0-1-.5-1.4-1.3-1.4s-1.32.4-1.32 1.4zM129.1 111.5v1.86c0 2.28-1.24 3.52-3.76 3.52h-1.2v5.35h-2.5V108h3.7c2.52 0 3.76 1.24 3.76 3.5zm-5-1.48v4.82h1.2c.8 0 1.23-.33 1.23-1.34v-2.14c0-1-.44-1.34-1.24-1.34zM58.28 133.57c2.32-1.33 3.46-2 5.7-3.45.43.45.65.68 1.1 1.12-2.74 1.8-4.13 2.66-7 4.32-.8-.83-1.2-1.26-1.95-2.13 1.9-2.68 2.9-4 4.92-6.56.45.54.67.8 1.13 1.33-1.58 2.1-2.36 3.18-3.9 5.37zM66.93 133c.5.45.74.68 1.25 1.12l-5.24 6c-.57-.5-.85-.75-1.4-1.26zM70.32 138.7l-3.47 4.64c-.54-.4-.8-.6-1.33-1l4.94-6.3c.65.5 1 .76 1.65 1.25-.58 1.94-.85 2.92-1.34 4.9l2.72-3.93 1.2.8-4.38 6.7c-.63-.42-.95-.63-1.57-1.07.56-2.44.88-3.64 1.6-6zM76.75 140.36c1.72 1 2.6 1.5 4.38 2.4l-.5 1c-.62-.3-.93-.47-1.54-.8l-3.22 6.07c-.65-.34-1-.52-1.6-.88l3.37-6c-.6-.34-.9-.5-1.5-.87zM84.9 153c-.7-.24-1-.37-1.72-.63.1-.6.14-.88.24-1.46-.8-.3-1.2-.47-2-.82l-.86 1.2-1.56-.65c2-2.6 3-3.9 4.87-6.6.86.38 1.3.56 2.17.9-.52 3.22-.76 4.84-1.15 8.07zm-2.85-3.84l1.55.64c.3-1.63.44-2.44.77-4.06-.9 1.4-1.37 2.1-2.32 3.45zM91.24 150.35c.9.25 1.36.36 2.28.57l-.58 2.47c-.3 1.24-1.35 1.76-3.05 1.3s-2.36-1.46-2-2.68l1.25-4c.4-1.22 1.38-1.66 2.88-1.25s2.12 1.3 1.83 2.54l-.18.77-1.52-.37.22-.83c.14-.55-.1-.84-.6-1a.73.73 0 0 0-1 .53l-1.2 4.15c-.17.55.1.85.66 1s.94 0 1.08-.52l.37-1.43-.76-.2zM98 151.63c.9.14 1.36.2 2.26.32l-.14 1.13c-.92-.1-1.38-.18-2.3-.33l-.37 2.3c1.2.2 1.8.28 3 .42l-.13 1.14c-1.93-.2-2.9-.36-4.8-.72L97 148c1.7.32 2.55.44 4.26.64l-.13 1.13c-1.1-.13-1.65-.2-2.75-.38zM109.5 157.07h-1.8l.07-8h1.58l.06 3.43c.77 0 1.14 0 1.9-.06l-.16-3.42 1.6-.1.58 8-1.8.12-.17-3.42c-.77 0-1.15 0-1.92.06zM122.2 155.68l-1.76.34-.55-1.38c-.86.15-1.28.2-2.13.33 0 .6-.06.9-.1 1.48l-1.63.2c.37-3.26.5-4.9.7-8.15.92-.13 1.37-.2 2.28-.36 1.2 3.04 1.84 4.55 3.2 7.54zm-4.37-1.82l1.64-.25c-.6-1.53-.9-2.3-1.45-3.86-.02 1.65-.1 2.47-.2 4.12zM123 147.3l1.53-.4 2.1 7.73-1.73.45zM133.25 152.47a1.78 1.78 0 0 1-.5-.86l-.45-1.16c-.27-.7-.68-.82-1.42-.56l-.56.2 1.1 3.07-1.7.57-2.48-7.6c.9-.3 1.37-.46 2.27-.8 1.56-.56 2.45-.3 2.92.85l.24.58a1.52 1.52 0 0 1-.42 1.92 1.58 1.58 0 0 1 1.7 1.15l.47 1.14a1.7 1.7 0 0 0 .56.82c-.68.3-1.02.42-1.7.7zm-4.13-5.8l.82 2.33.62-.22c.6-.2.88-.55.65-1.14l-.27-.74a.72.72 0 0 0-1.07-.48zM140.86 145.6l.52.92c.63 1.12.18 2.23-1.4 3s-2.76.53-3.3-.64l-1.75-3.78c-.54-1.16-.1-2.15 1.3-2.87s2.48-.5 3.1.62l.38.68-1.4.77-.4-.76a.86.86 0 0 0-1.52.8l1.92 3.86c.25.5.67.54 1.17.28s.73-.6.46-1.12l-.54-1zM142 139l3.4 5.16c.3.48.73.45 1.2.12s.67-.7.34-1.17l-3.5-5.1 1.26-.9 3.62 4.9c.76 1 .44 2.2-1.06 3.2s-2.7.9-3.37-.2l-3.23-5.18c.55-.3.83-.47 1.33-.82zM146.6 135.66a51 51 0 0 0 3.9-3.4l.78.83c-.52.5-.78.73-1.3 1.2l4.57 5.12c-.56.5-.85.76-1.42 1.24l-4.44-5.23c-.55.46-.82.7-1.37 1.13zM153.8 128.73c1.1-1.24 2.2-1.45 3.2-.64l.2.15c-.44.52-.66.78-1.1 1.3l-.26-.23c-.43-.38-.8-.28-1.17.14s-.43.8 0 1.18c1.2 1.12 3.8-1.36 5.55.1 1 .8.92 2.06-.35 3.48s-2.5 1.6-3.4.7l-.36-.34c.5-.5.74-.76 1.22-1.27l.42.4c.42.4.83.25 1.23-.2s.5-.88.07-1.25c-1.24-1.08-3.9 1.34-5.53-.26-.9-.92-.82-2 .3-3.27zM107.6 132a4.52 4.52 0 0 0-3.8-1.54c-2.34.44-5.48 3.9-5.48 3.9s-1.92 2.12-3.56 1.58-1-3-1-3a2.37 2.37 0 0 0-1.55 3.33c1.06 2.55 5.5 2.36 7.1 2.08a15.1 15.1 0 0 0 8.27-4 15.1 15.1 0 0 0 8.27 4c1.62.28 6 .47 7.1-2.08a2.37 2.37 0 0 0-1.54-3.27s.66 2.44-1 3-3.56-1.57-3.56-1.57-3.14-3.47-5.48-3.9a4.52 4.52 0 0 0-3.77 1.47z" class="cls-1"/></g></g></svg>