<svg xmlns="http://www.w3.org/2000/svg" viewBox="0 0 52.49 68.5"><defs><style>.cls-1{fill:#be9355;}</style></defs><title>chair</title><g id="Layer_2" data-name="Layer 2"><g id="_1" data-name=" 1"><path class="cls-1" d="M38.27,32.86a2.71,2.71,0,0,1-2.71,2.71H16.93a2.71,2.71,0,0,1-2.71-2.71L12.6,2.71A2.71,2.71,0,0,1,15.31,0H37.19a2.71,2.71,0,0,1,2.71,2.71Z"/><path class="cls-1" d="M49.21,20.43H44.44L42.81,36.28a3.29,3.29,0,0,1-3.29,3.29H13a3.29,3.29,0,0,1-3.29-3.29L8.06,20.43H3.29A3.29,3.29,0,0,0,0,23.71l3.79,21A3.29,3.29,0,0,0,7.07,48H46a3.29,3.29,0,0,0,3.28-3.29l3.25-21A3.29,3.29,0,0,0,49.21,20.43Z"/><path class="cls-1" d="M31.31,51.25c0,1.49-1.9,2.71-4.25,2.71H25.44c-2.35,0-4.25-1.21-4.25-2.71v-4.4c0-1.5,1.9-2.71,4.25-2.71h1.61c2.35,0,4.25,1.21,4.25,2.71Z"/><path class="cls-1" d="M14.3,65.42a3.08,3.08,0,0,1-3.08,3.08h0a3.08,3.08,0,0,1-3.08-3.08V62.11A3.08,3.08,0,0,1,11.22,59h0a3.08,3.08,0,0,1,3.08,3.08Z"/><path class="cls-1" d="M29.32,65.42a3.08,3.08,0,0,1-3.08,3.08h0a3.08,3.08,0,0,1-3.08-3.08V62.11A3.08,3.08,0,0,1,26.25,59h0a3.08,3.08,0,0,1,3.08,3.08Z"/><path class="cls-1" d="M44.59,65.42a3.08,3.08,0,0,1-3.08,3.08h0a3.08,3.08,0,0,1-3.08-3.08V62.11A3.08,3.08,0,0,1,41.52,59h0a3.08,3.08,0,0,1,3.08,3.08Z"/><rect class="cls-1" x="9.2" y="54.85" width="17.08" height="4.33" transform="translate(-32.65 24.98) rotate(-40.27)"/><rect class="cls-1" x="32.59" y="48.48" width="4.33" height="17.08" transform="translate(-31.22 46.68) rotate(-49.73)"/><rect class="cls-1" x="24.08" y="51.5" width="4.33" height="12.27"/></g></g></svg>