<svg xmlns="http://www.w3.org/2000/svg" viewBox="0 0 68.48 57.23"><defs><style>.cls-1{fill:#bd9254;}</style></defs><title>comb</title><g id="Layer_2" data-name="Layer 2"><g id="_1" data-name=" 1"><path class="cls-1" d="M68.07,15,58.9,5.81,59,5.72,54.79,1C52-1.26,48.86,1,48.86,1S7.49,42,5.39,44.39s-8.73,9.85-3.32,12.3S16.22,53,20.41,43.08a19.3,19.3,0,0,1,12.3-11.33L42,41a1.4,1.4,0,0,0,2-2l-9-9L37,28l9,9a1.4,1.4,0,0,0,2-2l-9-9L41,24,50,33a1.4,1.4,0,1,0,2-2L42.94,22l2-2.05L54,29a1.4,1.4,0,0,0,2-2l-9.09-9.09,2-2.05L58.06,25a1.4,1.4,0,1,0,2-2l-9.12-9.12,2-2.05L62.08,21a1.4,1.4,0,0,0,2-2L54.91,9.85l2-2.05L66.09,17a1.4,1.4,0,0,0,2-2Z"/></g></g></svg>