<svg xmlns="http://www.w3.org/2000/svg" viewBox="0 0 59.83 44.33"><defs><style>.cls-1{fill:#bd9254;}</style></defs><title>Asset 12</title><g id="Layer_2" data-name="Layer 2"><g id="_1" data-name=" 1"><path class="cls-1" d="M59,.87H51.72V.8L48.16.59A2.86,2.86,0,0,0,45.8,3s-.14,32.88,0,34.66.45,7.42,3.59,6.23,4.18-7.11,1.88-12.75a10.89,10.89,0,0,1,.39-9.43H59a.79.79,0,0,0,0-1.58H51.85V18.47H59a.79.79,0,1,0,0-1.58H51.83V15.27H59a.79.79,0,0,0,0-1.58H51.8V12.06H59a.79.79,0,1,0,0-1.58H51.78V8.86H59a.79.79,0,0,0,0-1.58H51.76V5.65H59a.79.79,0,0,0,0-1.58h-7.3V2.45H59A.79.79,0,1,0,59,.87Z"/><path class="cls-1" d="M40,38c-.65-3-5.53-7.85-5.53-7.85C27,23.06,25.63,22.06,23.17,19.26c1.35-2.27,3.28-5.45,4.57-7.39,0,0,.51-.65,1.16.07,0,0,5.13,5.2,10-1.08,0,0,3.9-6.22-2-10.12,0,0-6.58-3.4-9.83,4.34,0,0-2.47,4.92-3.77,6.94a13.46,13.46,0,0,1-3.18,3.82A13.48,13.48,0,0,1,16.88,12c-1.3-2-3.77-6.94-3.77-6.94C9.86-2.65,3.29.74,3.29.74c-5.93,3.9-2,10.12-2,10.12,4.84,6.29,10,1.08,10,1.08.65-.72,1.16-.07,1.16-.07C13.68,13.81,15.61,17,17,19.26c-2.47,2.79-4.12,3.88-11.63,11.25,0,0-4.56,4.57-5.21,7.53a8.55,8.55,0,0,0,1.37,6.28L20.06,24.69,38.64,44.33A8.56,8.56,0,0,0,40,38ZM32.08,3.16A4,4,0,0,1,37.3,5.37a4,4,0,0,1-2.49,5.1,4,4,0,0,1-5.23-2.21A4,4,0,0,1,32.08,3.16ZM10.54,8.26a4,4,0,0,1-5.23,2.21,4,4,0,0,1-2.49-5.1A4,4,0,0,1,8.05,3.16,4,4,0,0,1,10.54,8.26Z"/></g></g></svg>