<svg xmlns="http://www.w3.org/2000/svg" viewBox="0 0 96.35 65.81"><defs><style>.cls-1{fill:#bc9153;}</style></defs><title>comb3</title><g id="Layer_2" data-name="Layer 2"><g id="_1" data-name=" 1"><path class="cls-1" d="M96,13.81,87.51,5.36l.08-.08L83.73.93c-2.57-2.09-5.47,0-5.47,0s-51,50.87-53,53-8,9.08-3.06,11.34,13-3.38,16.9-12.55c3.17-7.52,22.15-22.89,24.24-23.49l8.57,8.57A1.29,1.29,0,0,0,73.76,36l-8.31-8.31,1.87-1.89,8.32,8.32a1.29,1.29,0,0,0,1.82-1.82L69.13,24,71,22.1l8.34,8.34a1.29,1.29,0,0,0,1.82-1.82l-8.36-8.36,1.87-1.89L83,26.74a1.29,1.29,0,0,0,1.82-1.82l-8.38-8.38,1.87-1.89L86.75,23a1.29,1.29,0,0,0,1.82-1.82l-8.41-8.41L82,10.92l8.42,8.42a1.29,1.29,0,1,0,1.82-1.82L83.84,9.08l1.87-1.89,8.44,8.44A1.29,1.29,0,1,0,96,13.81Z"/><path class="cls-1" d="M.38,13.81,8.83,5.36l-.08-.08L12.62.93c2.57-2.09,5.47,0,5.47,0s51,50.87,53,53,8,9.08,3.06,11.34-13-3.38-16.9-12.55C54.05,45.24,35.07,29.87,33,29.27l-8.57,8.57A1.29,1.29,0,0,1,22.59,36l8.31-8.31L29,25.82l-8.32,8.32a1.29,1.29,0,1,1-1.82-1.82L27.22,24,25.35,22.1,17,30.44a1.29,1.29,0,1,1-1.82-1.82l8.36-8.36-1.87-1.89L13.3,26.74a1.29,1.29,0,0,1-1.82-1.82l8.38-8.38L18,14.64,9.6,23a1.29,1.29,0,0,1-1.82-1.82l8.41-8.41-1.87-1.89L5.9,19.33a1.29,1.29,0,0,1-1.82-1.82l8.43-8.43L10.64,7.19,2.2,15.63A1.29,1.29,0,0,1,.38,13.81Z"/></g></g></svg>