<svg xmlns="http://www.w3.org/2000/svg" viewBox="0 0 65.84 88.51"><defs><style>.cls-1{fill:#193340;}</style></defs><title>cs</title><g id="Layer_2" data-name="Layer 2"><g id="_1" data-name=" 1"><path style="fill: #bf9456" class="cls-1" d="M24.25,45l.1-.37.88-3.41L24.34,31H3.52A3.4,3.4,0,0,0,0,34.24v20a3.36,3.36,0,0,0,3.14,3.22V35.68H7.51V57.51h3.56V35.68h4.37V57.51H19V35.68h4.37V51.1a29,29,0,0,0,.89-5.75Z"/><path style="fill: #bf9456" class="cls-1" d="M62.32,31H41.5l-.88,10.15.88,3.46.09.36v.36a29,29,0,0,0,.89,5.76V35.68h4.37V57.51h3.56V35.68h4.37V57.51h3.56V35.68H62.7V57.49a3.36,3.36,0,0,0,3.14-3.22v-20A3.4,3.4,0,0,0,62.32,31Z"/><path style="fill: #bf9456" class="cls-1" d="M55.46,76.86A10.21,10.21,0,0,0,47.15,68a47.56,47.56,0,0,1-5.79-10.52,42,42,0,0,1-2.44-8.85,24,24,0,0,1-.33-3.31l-1-4,.5-5.72L38.49,31,41,2,39,0,33,23.25,27.06,0,24.84,2l2.51,29,.41,4.68.5,5.77-1,3.9a24,24,0,0,1-.32,3.3,42,42,0,0,1-2.44,8.85A47.57,47.57,0,0,1,18.69,68a10.21,10.21,0,0,0-8.31,8.83C9.55,82.48,13,87.66,18.1,88.41a8.57,8.57,0,0,0,1.25.09h0c4.65,0,8.73-3.83,9.48-8.92a10.42,10.42,0,0,0-4-10A26.86,26.86,0,0,1,27.95,59.4c1.29-2.15,2.24-4.18,3.34-5.87a12.22,12.22,0,0,1,1.63-2.06,12.22,12.22,0,0,1,1.63,2.06c1.1,1.69,2.05,3.72,3.34,5.87A26.85,26.85,0,0,1,41,69.54a9.37,9.37,0,0,0-2.41,2.53A10.83,10.83,0,0,0,37,79.59c.75,5.08,4.83,8.92,9.48,8.92a8.55,8.55,0,0,0,1.25-.09,8.84,8.84,0,0,0,6.14-4A10.82,10.82,0,0,0,55.46,76.86Zm-30,2.23c-.51,3.43-3.14,6-6.12,6a5.17,5.17,0,0,1-.75-.06c-3.23-.48-5.41-3.93-4.85-7.7.51-3.43,3.14-6,6.12-6a5.17,5.17,0,0,1,.75.06C23.84,71.87,26,75.33,25.46,79.09Zm9.08-33.51a1.95,1.95,0,1,1,.32-1.08A2,2,0,0,1,34.55,45.58ZM51,82.53a5.49,5.49,0,0,1-3.79,2.53,5.17,5.17,0,0,1-.75.06c-3,0-5.61-2.59-6.12-6a7.44,7.44,0,0,1,1.06-5.17,5.49,5.49,0,0,1,3.79-2.53,5.17,5.17,0,0,1,.75-.06c3,0,5.61,2.59,6.12,6A7.43,7.43,0,0,1,51,82.53Z"/></g></g></svg>