<svg xmlns="http://www.w3.org/2000/svg" viewBox="0 0 58.87 49.61"><defs><style>.cls-1{fill:#bd9254;}</style></defs><title>drier1</title><g id="Layer_2" data-name="Layer 2"><g id="_1" data-name=" 1"><path class="cls-1" d="M15.17,3a12.19,12.19,0,0,1,3.37.48l2.37.68h0l19.91,5.6V20.6L22.71,25.7l-1.92.54-.25,2-.47,3.73L15.24,35l-1.38.89V46.61H6.44c-1-1.87-2.47-6.42-.62-10.11a24.52,24.52,0,0,0,2.37-9.79l.06-1.44-1.08-.95A12.17,12.17,0,0,1,15.17,3m0,20.74A8.57,8.57,0,1,0,6.6,15.17a8.58,8.58,0,0,0,8.57,8.57M15.17,0a15.17,15.17,0,0,0-10,26.59,21.35,21.35,0,0,1-2.06,8.57c-2.89,5.78.15,13,1.83,14.45H16.86v-12l6-3.85.64-5.13,20.31-5.71V7.47L19.38.59h0A15.17,15.17,0,0,0,15.17,0Zm0,20.74a5.57,5.57,0,1,1,5.57-5.57,5.57,5.57,0,0,1-5.57,5.57Z"/><path class="cls-1" d="M49.65,11.63a4.93,4.93,0,0,1-3.18-.94l1.59-1.85,0,0c.05,0,1.33.94,4.35-.19,4.62-1.73,6.32.52,6.49.78l-2,1.38,0,.05s-.88-1-3.66.08A10.21,10.21,0,0,1,49.65,11.63Z"/><path class="cls-1" d="M49.65,17A4.93,4.93,0,0,1,46.47,16l1.59-1.85,0,0c.05,0,1.33.94,4.35-.19,4.62-1.73,6.32.52,6.49.78l-2,1.38,0,.05s-.88-1-3.66.08A10.22,10.22,0,0,1,49.65,17Z"/><path class="cls-1" d="M49.65,22.33a4.93,4.93,0,0,1-3.18-.94l1.59-1.85,0,0c.05,0,1.33.94,4.35-.19,4.62-1.73,6.32.51,6.49.78l-2,1.38,0,.05s-.88-1-3.66.08A10.21,10.21,0,0,1,49.65,22.33Z"/></g></g></svg>