<svg xmlns="http://www.w3.org/2000/svg" viewBox="0 0 67.26 67.26"><defs><style>.cls-1{fill:#bd9254;}</style></defs><title>mirror</title><g id="Layer_2" data-name="Layer 2"><g id="_1" data-name=" 1"><path class="cls-1" d="M49.38,31.67A18.7,18.7,0,0,0,52,28.41V15a7.36,7.36,0,0,0-3-1.71V32.07Z"/><path class="cls-1" d="M38.84,15.28V36.64a14.08,14.08,0,0,0,6.4-1.85V13A14.94,14.94,0,0,0,38.84,15.28Z"/><path class="cls-1" d="M62.43,4.83C54.32-3.29,38.81-.93,27.79,10.08S14.42,36.61,22.54,44.72s23.62,5.76,34.64-5.26S70.55,12.94,62.43,4.83ZM29,38.23c-5.47-5.47-3.88-15.93,3.54-23.35s17.88-9,23.36-3.54,3.88,15.93-3.54,23.35S34.5,43.7,29,38.23Z"/><path class="cls-1" d="M16.07,62.25c-6.4,6.4-10.83,5.88-13.88,2.83S-1.39,57.59,5,51.19s14.06-9.12,17.12-6.06S22.47,55.84,16.07,62.25Z"/><path class="cls-1" d="M21.38,55.24S23.81,49.3,30.18,49L24.24,43,16.7,50.56Z"/><path class="cls-1" d="M12,45.88s5.93-2.42,6.27-8.79L24.24,43,16.7,50.56Z"/></g></g></svg>