<svg xmlns="http://www.w3.org/2000/svg" viewBox="0 0 74.33 90.45"><defs><style>.cls-1{fill:#bd9254;}</style></defs><title>scessior</title><g id="Layer_2" data-name="Layer 2"><g id="_1" data-name=" 1"><path class="cls-1" d="M36.22,79.91c-5.24-2-7.66-8.47-5.39-14.44s8.38-9.19,13.62-7.19,7.66,8.47,5.39,14.44S41.46,81.91,36.22,79.91Zm7.07-18.55c-3.54-1.35-7.74,1-9.37,5.29s-.06,8.83,3.48,10.18,7.74-1,9.37-5.29S46.83,62.71,43.28,61.36Z"/><path class="cls-1" d="M3.09,60.63C-1.09,56.89-1,50,3.23,45.22s11.12-5.58,15.3-1.84S22.65,54,18.39,58.79,7.27,64.37,3.09,60.63ZM16.33,45.84C13.51,43.31,8.73,44,5.69,47.42s-3.22,8.22-.4,10.75,7.6,1.82,10.64-1.58S19.16,48.37,16.33,45.84Z"/><path class="cls-1" d="M21.84,47.55c3.85-3.1,10.5-5.77,14.75-7.12.51-3.24-1.23-5.34-1.18-6.83-.83.7-1.57,1.31-2.19,1.8-9.2,7.28-22,6.32-22,6.32L17,44.41l3,4.92C20,48.52,15.92,52.31,21.84,47.55Z"/><path class="cls-1" d="M39.07,59.88l-.63,0A.51.51,0,0,0,39.07,59.88Z"/><path class="cls-1" d="M49.62,72.63a20.18,20.18,0,0,0-4.22,8.55c-.81,4.65,1.91,9.26,1.91,9.26l-5-1.9-4.4-9.25,4.74-1.11Z"/><polygon class="cls-1" points="19.84 55.57 21.52 57.07 16.55 62.63 14.43 60.74 19.84 55.57"/><path class="cls-1" d="M47.43,38.19C59.23,29.43,74.33,17,74.33,17L50.12,26.42Z"/><path class="cls-1" d="M45.37,41.75C47.61,30.23,55,0,55,0L36.8,32.21s5.38,13.59,3,25.22c-.22,1.07-.37,1.86-.48,2.46l5.48.36,5,3.93S43.13,53.26,45.37,41.75Zm-3.75-7.87a1.88,1.88,0,1,1,2.43-1.09A1.88,1.88,0,0,1,41.62,33.88Z"/><path class="cls-1" d="M39.28,60.17c-.42,2.34,0,.74,0,0Z"/><path class="cls-1" d="M39.07,59.88h.13A.1.1,0,0,0,39.07,59.88Z"/><path class="cls-1" d="M39.28,60.17l.05-.28H39.2A.46.46,0,0,1,39.28,60.17Z"/></g></g></svg>