<svg xmlns="http://www.w3.org/2000/svg" viewBox="0 0 46.02 65.6"><defs><style>.cls-1{fill:#bd9254;}</style></defs><title>spray</title><g id="Layer_2" data-name="Layer 2"><g id="_1" data-name=" 1"><ellipse class="cls-1" cx="38.61" cy="5.44" rx="7.41" ry="5.44"/><path class="cls-1" d="M27.41,7.48c1.19-.33.9-1.2,1-2.26.14-1.38.51-1.87.14-2a7.89,7.89,0,0,0-2.32-.48,2.36,2.36,0,0,1-1.88-.8c-.35-.57-1.76-.82-3.14-.56s-2.17.2-2,1a10.51,10.51,0,0,1-.45,4.21,1.66,1.66,0,0,0-.54,1.7c.18,1,.48,2.65.9,2.61a16.08,16.08,0,0,1,4.95,0c.86.26,1.13-.92,1.14-1.57S26.22,7.82,27.41,7.48Z"/><path class="cls-1" d="M16,21.06a21.76,21.76,0,0,1,11.52,0v-7s-5.17-3.88-11.86,0v7Z"/><path class="cls-1" d="M21.62,22.36A21.62,21.62,0,1,0,43.23,44,21.64,21.64,0,0,0,21.62,22.36ZM37.44,49.2l-.2,0H5.79a16.57,16.57,0,0,1,.45-11.64H37a16.56,16.56,0,0,1,.45,11.66Z"/></g></g></svg>