<svg xmlns="http://www.w3.org/2000/svg" viewBox="0 0 60.71 73.05"><defs><style>.cls-1{fill:#bd9254;}</style></defs><title>team</title><g id="Layer_2" data-name="Layer 2"><g id="_1" data-name=" 1"><path class="cls-1" d="M47.77,14.76c0,.06,0,.11,0,.17,0,4.7-1.94,8.32-5.6,10.46-2.84,1.67-6.71,2.47-11.81,2.47s-9-.81-11.81-2.47c-3.67-2.15-5.6-5.76-5.6-10.46,0-.06,0-.11,0-.17C5.12,16.83,0,20.26,0,24.14c0,6.32,13.59,11.45,30.36,11.45s30.36-5.13,30.36-11.45C60.71,20.26,55.59,16.83,47.77,14.76Z"/><path class="cls-1" d="M45.27,14.17a14.93,14.93,0,0,0-29.82,0c0,.25,0,.51,0,.76,0,8.25,6.68,10.45,14.93,10.45s14.93-2.21,14.93-10.45C45.29,14.67,45.28,14.42,45.27,14.17Z"/><path class="cls-1" d="M56.2,64.91c-1.13-3.27-15.95-5.41-17.71-7.17s-1.13-6-1.13-6c7.8-.25,12.2-3.15,12.2-3.15-3.6-2.4-3.2-9.28-4.79-20H15.94c-1.59,10.68-1.19,17.56-4.79,20,0,0,4.4,2.89,12.2,3.15,0,0,.63,4.28-1.13,6S5.65,61.64,4.51,64.91L1.66,73.05H59Z"/></g></g></svg>