<svg xmlns="http://www.w3.org/2000/svg" viewBox="0 0 54.78 58.14"><defs><style>.cls-1{fill:#fdfefe;}</style></defs><title>wallet-white</title><g id="Layer_2" data-name="Layer 2"><g id="_1" data-name=" 1"><path class="cls-1" d="M35.89,1.78a4.32,4.32,0,0,0-6-1L18,9.45,36.83,3.08Z"/><path class="cls-1" d="M44.16,8.42A4.3,4.3,0,0,0,38.73,5.7h0L24.1,10.63H44.91Z"/><path class="cls-1" d="M44.3,45.35a10.11,10.11,0,0,1,0-20.23h3.45a10.08,10.08,0,0,1,2.85.42V18c0-.08,0-.16,0-.24a4.32,4.32,0,0,0-4.31-4.08h-42A4.33,4.33,0,0,0,.1,17.1,4.36,4.36,0,0,0,0,18V53.82a4.32,4.32,0,0,0,4.29,4.32h42a4.32,4.32,0,0,0,4.32-4.32V44.94a10.08,10.08,0,0,1-2.85.41Z"/><path class="cls-1" d="M50.59,28.82a7,7,0,0,0-2.85-.61H44.3a7,7,0,1,0,0,14.05h3.45a7,7,0,0,0,2.85-13.45ZM46,38.29a3.05,3.05,0,1,1,3.05-3.05A3.05,3.05,0,0,1,46,38.29Z"/></g></g></svg>